<svg xmlns="http://www.w3.org/2000/svg" width="800" height="600" viewBox="0 0 800 600">
  <rect width="800" height="600" fill="#141414"/>
  <rect x="0" y="0" width="180" height="600" fill="#0A0A0A"/>
  <rect x="24" y="32" width="130" height="20" fill="#262626"/>
  <rect x="24" y="90" width="130" height="14" fill="#3B82F6"/>
  <rect x="24" y="120" width="130" height="14" fill="#262626"/>
  <rect x="24" y="150" width="130" height="14" fill="#262626"/>
  <rect x="220" y="40" width="160" height="90" fill="none" stroke="#262626"/>
  <text x="236" y="66" font-family="monospace" font-size="10" fill="#8A8A8A" letter-spacing="1">REVENUE</text>
  <text x="236" y="100" font-family="monospace" font-size="24" fill="#EDEDED">$84.2K</text>
  <rect x="400" y="40" width="160" height="90" fill="none" stroke="#262626"/>
  <text x="416" y="66" font-family="monospace" font-size="10" fill="#8A8A8A" letter-spacing="1">USERS</text>
  <text x="416" y="100" font-family="monospace" font-size="24" fill="#EDEDED">12,904</text>
  <rect x="580" y="40" width="160" height="90" fill="none" stroke="#262626"/>
  <text x="596" y="66" font-family="monospace" font-size="10" fill="#8A8A8A" letter-spacing="1">CHURN</text>
  <text x="596" y="100" font-family="monospace" font-size="24" fill="#EDEDED">1.2%</text>
  <rect x="220" y="160" width="520" height="220" fill="none" stroke="#262626"/>
  <polyline points="240,340 300,300 360,320 420,260 480,280 540,220 600,250 660,190 720,210" fill="none" stroke="#3B82F6" stroke-width="2"/>
</svg>
